<?xml version="1.0" encoding="utf-8"?>
<!-- Generator: Adobe Illustrator 15.1.0, SVG Export Plug-In . SVG Version: 6.00 Build 0)  -->
<!DOCTYPE svg PUBLIC "-//W3C//DTD SVG 1.1//EN" "http://www.w3.org/Graphics/SVG/1.1/DTD/svg11.dtd">
<svg version="1.1" id="Layer_1" xmlns="http://www.w3.org/2000/svg" xmlns:xlink="http://www.w3.org/1999/xlink" x="0px" y="0px"
	 width="180px" height="50px" viewBox="0 0 180 50" enable-background="new 0 0 180 50" xml:space="preserve">
<path fill="#EE417E" d="M62.209,22.739h-0.431v9.519h-3.182V19.269c-0.12-2.417,1.292-3.372,3.66-3.372
	c0.549,0,1.053,0.023,1.531,0.096v2.631H62.95c-0.741,0-1.148,0.312-1.219,0.933v0.838h2.057v0.741
	C63.788,21.996,63.07,22.739,62.209,22.739"/>
<path fill="#EE417E" d="M67.951,22.906h-3.182c0.383-2.344,2.033-3.493,4.951-3.493c3.492,0,5.264,1.149,5.334,3.493v4.305
	c0,3.493-2.104,5.047-5.525,5.288c-3.04,0.24-5.145-1.17-5.145-3.972c0.072-3.038,2.273-3.852,5.479-4.163
	c1.364-0.167,2.057-0.575,2.057-1.269c-0.071-0.717-0.742-1.076-2.057-1.076C68.74,22.02,68.118,22.307,67.951,22.906
	 M71.969,27.068v-1.17c-0.741,0.308-1.602,0.571-2.535,0.763c-1.268,0.24-1.913,0.837-1.913,1.77
	c0.071,1.006,0.597,1.482,1.601,1.482C70.894,29.913,71.969,28.86,71.969,27.068"/>
<path fill="#EE417E" d="M82.375,32.545c-3.828,0-5.789-2.2-5.884-6.554c0-4.331,1.937-6.506,5.836-6.579
	c3.062,0,4.879,1.365,5.431,4.115H84.29c-0.383-0.863-1.054-1.316-2.058-1.316c-1.675,0-2.512,1.269-2.512,3.779
	c0,2.512,0.885,3.777,2.655,3.757c0.742,0,1.387-0.312,1.915-0.911c0.31-0.31,0.667-0.453,1.076-0.453h2.394
	C87.185,30.968,85.318,32.617,82.375,32.545"/>
<path fill="#EE417E" d="M95.078,32.545c-3.827-0.118-5.742-2.344-5.742-6.646c0-4.309,1.94-6.461,5.79-6.486
	c4.02,0,5.91,2.464,5.668,7.418h-8.181c0.12,1.937,0.956,2.917,2.513,2.917c0.743,0,1.437-0.312,2.056-0.911
	c0.289-0.31,0.647-0.453,1.08-0.453h2.341C99.91,31.063,98.188,32.545,95.078,32.545 M92.661,24.556h4.761
	c-0.19-1.674-0.979-2.536-2.344-2.536S92.902,22.882,92.661,24.556"/>
<path fill="#68318E" d="M105.796,21.876h-0.334v7.01c0,0.524,0.31,0.812,0.931,0.812h0.979v2.417
	c-1.025,0.096-2.15,0.096-3.348-0.024c-1.195-0.118-1.77-0.861-1.746-2.271V15.993h1.648c0.839,0,1.535,0.765,1.535,1.602v2.009
	h1.91v0.696C107.372,21.207,106.681,21.876,105.796,21.876"/>
<path fill="#68318E" d="M120.126,25.991c0,4.355-1.94,6.554-5.769,6.554c-3.824,0-5.74-2.198-5.74-6.554
	c0-4.402,1.916-6.579,5.74-6.579C118.186,19.413,120.126,21.589,120.126,25.991 M111.846,25.991c0.025,2.465,0.863,3.709,2.49,3.709
	c1.626,0,2.439-1.292,2.464-3.802c0-2.466-0.813-3.687-2.442-3.687C112.684,22.212,111.846,23.48,111.846,25.991"/>
<path fill="#68318E" d="M130.818,32.258c-1.053-0.07-1.577-0.571-1.577-1.576v-6.507c-0.074-1.316-0.792-1.962-2.204-1.962
	c-1.411,0-2.126,0.646-2.153,1.962v8.083h-3.229v-7.439c0-3.612,1.818-5.406,5.431-5.406c3.613,0,5.382,1.794,5.358,5.406v7.439
	H130.818z"/>
<path fill="#68318E" d="M139.525,32.545c-3.827-0.118-5.74-2.344-5.74-6.646c0-4.309,1.938-6.461,5.788-6.486
	c4.021,0,5.907,2.464,5.668,7.418h-8.181c0.122,1.937,0.958,2.917,2.513,2.917c0.742,0,1.434-0.312,2.057-0.911
	c0.288-0.31,0.647-0.453,1.076-0.453h2.345C144.358,31.063,142.637,32.545,139.525,32.545 M137.11,24.556h4.76
	c-0.19-1.674-0.98-2.536-2.345-2.536C138.163,22.02,137.35,22.882,137.11,24.556"/>
<path fill="#6A338E" d="M39.002,26.702c-0.087-1.01-0.04-1.919,0-2.836c0.552-11.209,8.996-21.018,20.682-23.037
	c1.334-0.23,2.689-0.412,4.057-0.259c0.003,2.591,0.007,5.181,0.011,7.771c-3.267,0.136-6.35,0.904-9.098,2.743
	c-4.508,3.014-7.071,7.186-7.693,12.621c-0.394,3.435,0.426,6.551,1.927,9.56c0.258,0.516,0.31,0.953,0.164,1.507
	c-0.577,2.174-1.105,4.359-1.646,6.509c0.22,0.805,0.727,0.879,1.401,0.697c2.076-0.566,4.159-1.106,6.237-1.662
	c0.355-0.095,0.684-0.188,1.051,0.006c2.389,1.267,4.977,1.757,7.646,1.914v7.762c-5.888,0.099-11.076-1.843-15.602-5.521
	c-5.204-4.227-8.188-9.736-9.047-16.387C39.031,27.632,39.03,27.161,39.002,26.702"/>
</svg>
